<svg version="1.1" viewBox="0.0 0.0 1080.0 1080.0" fill="none" stroke="none" stroke-linecap="square" stroke-miterlimit="10" xmlns:xlink="http://www.w3.org/1999/xlink" xmlns="http://www.w3.org/2000/svg"><clipPath id="p.0"><path d="m0 0l1080.0 0l0 1080.0l-1080.0 0l0 -1080.0z" clip-rule="nonzero"/></clipPath><g clip-path="url(#p.0)"><path fill="#ffffff" d="m0 0l1080.0 0l0 1080.0l-1080.0 0z" fill-rule="evenodd"/><path fill="#000000" d="m27.778763 42.56588l1027.496 0l0 996.53546l-1027.496 0z" fill-rule="evenodd"/><path fill="#ffffff" d="m173.18694 192.67548l0 38.078125l-22.265625 0l0 -108.06251l42.15625 0q12.171875 0 21.40625 4.453125q9.234375 4.4531326 14.203125 12.656258q4.984375 8.203125 4.984375 18.65625q0 15.890625 -10.875 25.0625q-10.875 9.15625 -30.09375 9.15625l-19.515625 0zm0 -18.03125l19.890625 0q8.828125 0 13.46875 -4.15625q4.640625 -4.15625 4.640625 -11.875q0 -7.9375 -4.6875 -12.828125q-4.671875 -4.90625 -12.90625 -5.0625l-20.40625 0l0 33.921875zm115.77733 16.546875l-17.734375 0l0 39.5625l-22.26561 0l0 -108.06251l40.14061 0q19.15625 0 29.546875 8.531258q10.390625 8.53125 10.390625 24.125q0 11.0625 -4.796875 18.453125q-4.78125 7.375 -14.5 11.75l23.375 44.15625l0 1.046875l-23.890625 0l-20.265625 -39.5625zm-17.734375 -18.03125l17.953125 0q8.390625 0 12.984375 -4.265625q4.609375 -4.265625 4.609375 -11.765625q0 -7.640625 -4.34375 -12.015625q-4.34375 -4.390625 -13.328125 -4.390625l-17.875 0l0 32.4375zm163.5039 6.015625q0 15.953125 -5.640625 27.984375q-5.640625 12.015625 -16.15625 18.546875q-10.5 6.53125 -24.078125 6.53125q-13.4375 0 -23.984375 -6.453125q-10.53125 -6.46875 -16.328125 -18.453125q-5.78125 -11.984375 -5.84375 -27.5625l0 -5.34375q0 -15.96875 5.75 -28.09375q5.75 -12.140625 16.25 -18.625008q10.5 -6.5 24.0 -6.5q13.515625 0 24.015625 6.5q10.5 6.4843826 16.25 18.625008q5.765625 12.125 5.765625 28.015625l0 4.828125zm-22.5625 -4.90625q0 -17.0 -6.09375 -25.828125q-6.078125 -8.828125 -17.359375 -8.828125q-11.21875 0 -17.3125 8.71875q-6.078125 8.71875 -6.140625 25.5625l0 5.28125q0 16.546875 6.078125 25.671875q6.09375 9.125 17.515625 9.125q11.203125 0 17.21875 -8.78125q6.015625 -8.796875 6.09375 -25.65625l0 -5.265625zm38.742188 56.484375l0 -108.06251l37.84375 0q19.671875 0 29.828156 7.5312576q10.171875 7.53125 10.171875 22.078125q0 7.9375 -4.078125 14.0q-4.078125 6.046875 -11.359375 8.859375q8.3125 2.078125 13.09375 8.390625q4.796875 6.3125 4.796875 15.4375q0 15.578125 -9.953125 23.59375q-9.9375305 8.015625 -28.34378 8.171875l-42.0 0zm22.265625 -47.0625l0 29.171875l19.0625 0q7.875 0 12.28125 -3.75q4.421875 -3.75 4.421875 -10.34375q0 -14.84375 -15.359375 -15.078125l-20.40625 0zm0 -15.734375l16.46875 0q16.84375 -0.296875 16.84375 -13.421875q0 -7.359375 -4.265625 -10.578125q-4.265625 -3.234375 -13.46875 -3.234375l-15.578125 0l0 27.234375z" fill-rule="nonzero"/><path fill="#f9b310" d="m570.18304 192.67548l0 38.078125l-22.265625 0l0 -108.06251l42.15625 0q12.171875 0 21.40625 4.453125q9.234375 4.4531326 14.203125 12.656258q4.984375 8.203125 4.984375 18.65625q0 15.890625 -10.875 25.0625q-10.875 9.15625 -30.09375 9.15625l-19.515625 0zm0 -18.03125l19.890625 0q8.828125 0 13.46875 -4.15625q4.640625 -4.15625 4.640625 -11.875q0 -7.9375 -4.6875 -12.828125q-4.671875 -4.90625 -12.90625 -5.0625l-20.40625 0l0 33.921875zm115.77734 16.546875l-17.734375 0l0 39.5625l-22.265625 0l0 -108.06251l40.140625 0q19.15625 0 29.546875 8.531258q10.390625 8.53125 10.390625 24.125q0 11.0625 -4.796875 18.453125q-4.78125 7.375 -14.5 11.75l23.375 44.15625l0 1.046875l-23.890625 0l-20.265625 -39.5625zm-17.734375 -18.03125l17.953125 0q8.390625 0 12.984375 -4.265625q4.609375 -4.265625 4.609375 -11.765625q0 -7.640625 -4.34375 -12.015625q-4.34375 -4.390625 -13.328125 -4.390625l-17.875 0l0 32.4375zm163.5039 6.015625q0 15.953125 -5.640625 27.984375q-5.640625 12.015625 -16.15625 18.546875q-10.5 6.53125 -24.078125 6.53125q-13.4375 0 -23.984375 -6.453125q-10.53125 -6.46875 -16.328125 -18.453125q-5.78125 -11.984375 -5.84375 -27.5625l0 -5.34375q0 -15.96875 5.75 -28.09375q5.75 -12.140625 16.25 -18.625008q10.5 -6.5 24.0 -6.5q13.515625 0 24.015625 6.5q10.5 6.4843826 16.25 18.625008q5.765625 12.125 5.765625 28.015625l0 4.828125zm-22.5625 -4.90625q0 -17.0 -6.09375 -25.828125q-6.078125 -8.828125 -17.359375 -8.828125q-11.21875 0 -17.3125 8.71875q-6.078125 8.71875 -6.140625 25.5625l0 5.28125q0 16.546875 6.078125 25.671875q6.09375 9.125 17.515625 9.125q11.203125 0 17.21875 -8.78125q6.015625 -8.796875 6.09375 -25.65625l0 -5.265625zm124.24219 42.828125q-6.015625 7.203125 -17.0 11.171875q-10.984375 3.96875 -24.34375 3.96875q-14.03125 0 -24.609375 -6.125q-10.578125 -6.125 -16.328125 -17.765625q-5.75 -11.65625 -5.890625 -27.390625l0 -7.359375q0 -16.171875 5.453125 -28.0q5.453125 -11.84375 15.734375 -18.109383q10.28125 -6.28125 24.078125 -6.28125q19.21875 0 30.046875 9.171883q10.84375 9.15625 12.859375 26.671875l-21.671875 0q-1.484375 -9.28125 -6.578125 -13.578125q-5.078125 -4.3125 -13.984375 -4.3125q-11.359375 0 -17.296875 8.546875q-5.9375 8.53125 -6.015625 25.375l0 6.90625q0 17.0 6.453125 25.6875q6.46875 8.671875 18.9375 8.671875q12.546875 0 17.890625 -5.34375l0 -18.625l-20.265625 0l0 -16.40625l42.53125 0l0 43.125z" fill-rule="nonzero"/><path fill="#ffffff" d="m448.53458 413.1536l-74.078125 0l0 -14.703125l34.96875 -37.25q7.1875 -7.875 10.640625 -13.734375q3.453125 -5.859375 3.453125 -11.125q0 -7.203125 -3.640625 -11.3125q-3.625 -4.125 -10.390625 -4.125q-7.265625 0 -11.46875 5.015625q-4.1875 5.0 -4.1875 13.15625l-21.515625 0q0 -9.859375 4.703125 -18.015625q4.71875 -8.171875 13.328125 -12.8125q8.609375 -4.640625 19.515625 -4.640625q16.703125 0 25.9375 8.015625q9.25 8.015625 9.25 22.640625q0 8.015625 -4.15625 16.328125q-4.15625 8.3125 -14.25 19.359375l-24.578125 25.90625l46.46875 0l0 17.296875zm85.86331 -44.6875q0 22.421875 -9.28125 34.296875q-9.265625 11.875 -27.15628 11.875q-17.65625 0 -27.015625 -11.65625q-9.34375 -11.65625 -9.578125 -33.390625l0 -19.890625q0 -22.640625 9.390625 -34.359375q9.390625 -11.734375 27.046875 -11.734375q17.671906 0 27.015656 11.625q9.359375 11.609375 9.578125 33.34375l0 19.890625zm-21.4375 -21.8125q0 -13.4375 -3.6875305 -19.5625q-3.671875 -6.125 -11.453125 -6.125q-7.578125 0 -11.1875 5.828125q-3.59375 5.828125 -3.8125 18.21875l0 26.28125q0 13.203125 3.59375 19.625q3.609375 6.421875 11.546875 6.421875q7.875 0 11.359375 -6.15625q3.4844055 -6.15625 3.6406555 -18.859375l0 -25.671875zm109.98828 66.5l-74.078125 0l0 -14.703125l34.96875 -37.25q7.1875 -7.875 10.640625 -13.734375q3.453125 -5.859375 3.453125 -11.125q0 -7.203125 -3.640625 -11.3125q-3.625 -4.125 -10.390625 -4.125q-7.265625 0 -11.46875 5.015625q-4.1875 5.0 -4.1875 13.15625l-21.515625 0q0 -9.859375 4.703125 -18.015625q4.71875 -8.171875 13.328125 -12.8125q8.609375 -4.640625 19.515625 -4.640625q16.703125 0 25.9375 8.015625q9.25 8.015625 9.25 22.640625q0 8.015625 -4.15625 16.328125q-4.15625 8.3125 -14.25 19.359375l-24.578125 25.90625l46.46875 0l0 17.296875zm34.95703 -63.53125l11.421875 0q8.171875 0 12.09375 -4.078125q3.9375 -4.09375 3.9375 -10.84375q0 -6.53125 -3.890625 -10.15625q-3.890625 -3.640625 -10.71875 -3.640625q-6.171875 0 -10.328125 3.375q-4.15625 3.375 -4.15625 8.796875l-21.4375 0q0 -8.46875 4.5625 -15.1875q4.5625 -6.71875 12.765625 -10.5q8.203125 -3.78125 18.0625 -3.78125q17.15625 0 26.875 8.203125q9.71875 8.203125 9.71875 22.59375q0 7.421875 -4.53125 13.65625q-4.515625 6.234375 -11.875 9.578125q9.140625 3.265625 13.625 9.796875q4.484375 6.53125 4.484375 15.4375q0 14.390625 -10.5 23.078125q-10.5 8.6875 -27.796875 8.6875q-16.171875 0 -26.453125 -8.53125q-10.28125 -8.546875 -10.28125 -22.5625l21.453125 0q0 6.078125 4.5625 9.9375q4.5625 3.859375 11.25 3.859375q7.640625 0 11.984375 -4.046875q4.34375 -4.046875 4.34375 -10.71875q0 -16.1875 -17.8125 -16.1875l-11.359375 0l0 -16.765625z" fill-rule="nonzero"/><path fill="#ffffff" d="m448.2416 551.3973l-42.75 0l0 44.15625l-22.265625 0l0 -108.06247l70.359375 0l0 18.03125l-48.09375 0l0 27.90622l42.75 0l0 17.96875zm65.00784 21.890625l-39.03128 0l-7.421875 22.265625l-23.6875 0l40.234375 -108.06247l20.625 0l40.453156 108.06247l-23.671875 0l-7.5 -22.265625zm-33.03128 -18.03125l27.015625 0l-13.578125 -40.453125l-13.4375 40.453125zm96.57034 22.40625l47.265625 0l0 17.890625l-69.53125 0l0 -108.06247l22.265625 0l0 90.171844zm82.30859 0l47.265625 0l0 17.890625l-69.53125 0l0 -108.06247l22.265625 0l0 90.171844z" fill-rule="nonzero"/><path fill="#ffffff" d="m275.04825 749.5941q0 -6.296875 -4.453125 -9.671875q-4.453125 -3.390625 -16.031235 -7.125q-11.578125 -3.75 -18.328125 -7.390625q-18.40625 -9.953125 -18.40625 -26.796875q0 -8.75 4.921875 -15.609375q4.9375 -6.875 14.171875 -10.734375q9.25 -3.859375 20.749985 -3.859375q11.578125 0 20.625 4.203125q9.0625 4.1875 14.078125 11.828125q5.015625 7.640625 5.015625 17.359375l-22.265625 0q0 -7.421875 -4.6875 -11.53125q-4.671875 -4.125 -13.125 -4.125q-8.17186 0 -12.70311 3.453125q-4.515625 3.453125 -4.515625 9.09375q0 5.265625 5.296875 8.828125q5.3125 3.5625 15.624985 6.6875q19.0 5.703125 27.6875 14.171875q8.6875 8.453125 8.6875 21.078125q0 14.03125 -10.625 22.015625q-10.609375 7.96875 -28.5625 7.96875q-12.468735 0 -22.718735 -4.5625q-10.234375 -4.5625 -15.625 -12.5q-5.375 -7.953125 -5.375 -18.421875l22.34375 0q0 17.890625 21.374985 17.890625q7.9375 0 12.390625 -3.21875q4.453125 -3.234375 4.453125 -9.03125zm102.42578 -18.46875l-42.75 0l0 28.9375l50.171875 0l0 17.890625l-72.4375 0l0 -108.0625l72.28125 0l0 18.03125l-50.015625 0l0 25.75l42.75 0l0 17.453125zm49.578125 -61.234375l27.75 78.375l27.609375 -78.375l29.25 0l0 108.0625l-22.34375 0l0 -29.546875l2.21875 -50.984375l-29.15625 80.53125l-15.296875 0l-29.09375 -80.453125l2.234375 50.90625l0 29.546875l-22.265625 0l0 -108.0625l29.09375 0zm127.72659 108.0625l-22.265625 0l0 -108.0625l22.265625 0l0 108.0625zm108.51172 0l-22.265625 0l-43.34375 -71.109375l0 71.109375l-22.265625 0l0 -108.0625l22.265625 0l43.40625 71.25l0 -71.25l22.203125 0l0 108.0625zm81.78125 -22.265625l-39.03125 0l-7.421875 22.265625l-23.6875 0l40.234375 -108.0625l20.625 0l40.453125 108.0625l-23.671875 0l-7.5 -22.265625zm-33.03125 -18.03125l27.015625 0l-13.578125 -40.453125l-13.4375 40.453125zm114.30469 0.734375l-17.734375 0l0 39.5625l-22.265625 0l0 -108.0625l40.140625 0q19.15625 0 29.546875 8.53125q10.390625 8.53125 10.390625 24.125q0 11.0625 -4.796875 18.453125q-4.78125 7.375 -14.5 11.75l23.375 44.15625l0 1.046875l-23.890625 0l-20.265625 -39.5625zm-17.734375 -18.03125l17.953125 0q8.390625 0 12.984375 -4.265625q4.609375 -4.265625 4.609375 -11.765625q0 -7.640625 -4.34375 -12.015625q-4.34375 -4.390625 -13.328125 -4.390625l-17.875 0l0 32.4375z" fill-rule="nonzero"/><path fill="#ffffff" d="m357.6166 931.9941q0 -6.296875 -4.453125 -9.671875q-4.453125 -3.390625 -16.03125 -7.125q-11.578125 -3.75 -18.328125 -7.390625q-18.40625 -9.953125 -18.40625 -26.796875q0 -8.75 4.921875 -15.609375q4.9375 -6.875 14.171875 -10.734375q9.25 -3.859375 20.75 -3.859375q11.578125 0 20.625 4.203125q9.0625 4.1875 14.078125 11.828125q5.015625 7.640625 5.015625 17.359375l-22.265625 0q0 -7.421875 -4.6875 -11.53125q-4.671875 -4.125 -13.125 -4.125q-8.171875 0 -12.703125 3.453125q-4.515625 3.453125 -4.515625 9.09375q0 5.265625 5.296875 8.828125q5.3125 3.5625 15.625 6.6875q19.0 5.703125 27.6875 14.171875q8.6875 8.453125 8.6875 21.078125q0 14.03125 -10.625 22.015625q-10.609375 7.96875 -28.5625 7.96875q-12.46875 0 -22.71875 -4.5625q-10.234375 -4.5625 -15.625 -12.5q-5.375 -7.953125 -5.375 -18.421875l22.34375 0q0 17.890625 21.375 17.890625q7.9375 0 12.390625 -3.21875q4.453125 -3.234375 4.453125 -9.03125zm102.42578 -18.46875l-42.75 0l0 28.9375l50.171875 0l0 17.890625l-72.4375 0l0 -108.0625l72.28125 0l0 18.03125l-50.015625 0l0 25.75l42.75 0l0 17.453125zm60.484406 7.265625l-17.734406 0l0 39.5625l-22.265625 0l0 -108.0625l40.140656 0q19.15625 0 29.546875 8.53125q10.390625 8.53125 10.390625 24.125q0 11.0625 -4.796875 18.453125q-4.78125 7.375 -14.5 11.75l23.375 44.15625l0 1.046875l-23.890625 0l-20.265625 -39.5625zm-17.734406 -18.03125l17.953156 0q8.390625 0 12.984375 -4.265625q4.609375 -4.265625 4.609375 -11.765625q0 -7.640625 -4.34375 -12.015625q-4.34375 -4.390625 -13.328125 -4.390625l-17.87503 0l0 32.4375zm98.41019 57.59375l-22.265625 0l0 -108.0625l22.265625 0l0 108.0625zm85.65234 -46.828125l-42.75 0l0 28.9375l50.171875 0l0 17.890625l-72.4375 0l0 -108.0625l72.28125 0l0 18.03125l-50.015625 0l0 25.75l42.75 0l0 17.453125zm76.515625 18.46875q0 -6.296875 -4.453125 -9.671875q-4.453125 -3.390625 -16.03125 -7.125q-11.578125 -3.75 -18.328125 -7.390625q-18.40625 -9.953125 -18.40625 -26.796875q0 -8.75 4.921875 -15.609375q4.9375 -6.875 14.171875 -10.734375q9.25 -3.859375 20.75 -3.859375q11.578125 0 20.625 4.203125q9.0625 4.1875 14.078125 11.828125q5.015625 7.640625 5.015625 17.359375l-22.265625 0q0 -7.421875 -4.6875 -11.53125q-4.671875 -4.125 -13.125 -4.125q-8.171875 0 -12.703125 3.453125q-4.515625 3.453125 -4.515625 9.09375q0 5.265625 5.296875 8.828125q5.3125 3.5625 15.625 6.6875q19.0 5.703125 27.6875 14.171875q8.6875 8.453125 8.6875 21.078125q0 14.03125 -10.625 22.015625q-10.609375 7.96875 -28.5625 7.96875q-12.46875 0 -22.71875 -4.5625q-10.234375 -4.5625 -15.625 -12.5q-5.375 -7.953125 -5.375 -18.421875l22.34375 0q0 17.890625 21.375 17.890625q7.9375 0 12.390625 -3.21875q4.453125 -3.234375 4.453125 -9.03125z" fill-rule="nonzero"/></g></svg>